<svg width="1280" height="360" viewBox="0 0 1280 360" fill="none" xmlns="http://www.w3.org/2000/svg">
  <rect width="1280" height="360" rx="36" fill="#030712"/>
  <rect x="20" y="20" width="1240" height="320" rx="28" fill="url(#bg)"/>
  <path d="M0 300C150 250 280 180 430 180C640 180 710 290 920 290C1050 290 1150 255 1280 210V360H0V300Z" fill="url(#wave)" fill-opacity="0.35"/>
  <g opacity="0.3">
    <path d="M120 0V360" stroke="#11314F"/>
    <path d="M260 0V360" stroke="#11314F"/>
    <path d="M400 0V360" stroke="#11314F"/>
    <path d="M540 0V360" stroke="#11314F"/>
    <path d="M680 0V360" stroke="#11314F"/>
    <path d="M820 0V360" stroke="#11314F"/>
    <path d="M960 0V360" stroke="#11314F"/>
    <path d="M1100 0V360" stroke="#11314F"/>
    <path d="M0 80H1280" stroke="#11314F"/>
    <path d="M0 160H1280" stroke="#11314F"/>
    <path d="M0 240H1280" stroke="#11314F"/>
  </g>
  <rect x="72" y="72" width="196" height="196" rx="40" fill="url(#panel)" stroke="url(#stroke)" stroke-width="2"/>
  <path d="M126 216L166 102H194L156 216H126Z" fill="url(#accent)"/>
  <path d="M194 216L234 102H262L224 216H194Z" fill="#F8FAFC"/>
  <path d="M164 170H206" stroke="#60A5FA" stroke-width="10" stroke-linecap="round"/>
  <circle cx="1028" cy="94" r="12" fill="#22C55E"/>
  <circle cx="1116" cy="94" r="12" fill="#38BDF8"/>
  <circle cx="1204" cy="94" r="12" fill="#60A5FA"/>
  <text x="332" y="156" fill="#F8FAFC" font-family="'Segoe UI', Arial, sans-serif" font-size="74" font-weight="700" letter-spacing="5">VIKI CODE</text>
  <text x="336" y="204" fill="#93C5FD" font-family="'Segoe UI', Arial, sans-serif" font-size="26" letter-spacing="5">GOVERNED CODING INFRASTRUCTURE FOR REAL REPOSITORIES</text>
  <text x="336" y="250" fill="#CBD5E1" font-family="'Segoe UI', Arial, sans-serif" font-size="24">Live-tested multi-agent execution, approvals, rollback, repo intelligence, CLI, API, IDE, and messaging.</text>
  <defs>
    <linearGradient id="bg" x1="36" y1="24" x2="1220" y2="328" gradientUnits="userSpaceOnUse">
      <stop stop-color="#07111F"/>
      <stop offset="0.55" stop-color="#040814"/>
      <stop offset="1" stop-color="#02050D"/>
    </linearGradient>
    <linearGradient id="wave" x1="220" y1="200" x2="1180" y2="330" gradientUnits="userSpaceOnUse">
      <stop stop-color="#1D4ED8"/>
      <stop offset="1" stop-color="#22C55E"/>
    </linearGradient>
    <linearGradient id="panel" x1="88" y1="84" x2="248" y2="248" gradientUnits="userSpaceOnUse">
      <stop stop-color="#0A1628"/>
      <stop offset="1" stop-color="#03060F"/>
    </linearGradient>
    <linearGradient id="stroke" x1="90" y1="84" x2="250" y2="260" gradientUnits="userSpaceOnUse">
      <stop stop-color="#38BDF8"/>
      <stop offset="1" stop-color="#1D4ED8"/>
    </linearGradient>
    <linearGradient id="accent" x1="126" y1="102" x2="208" y2="220" gradientUnits="userSpaceOnUse">
      <stop stop-color="#38BDF8"/>
      <stop offset="1" stop-color="#1D4ED8"/>
    </linearGradient>
  </defs>
</svg>
